<?xml version="1.0" encoding="UTF-8" standalone="no"?>
<svg
   xmlns:dc="http://purl.org/dc/elements/1.1/"
   xmlns:cc="http://creativecommons.org/ns#"
   xmlns:rdf="http://www.w3.org/1999/02/22-rdf-syntax-ns#"
   xmlns:svg="http://www.w3.org/2000/svg"
   xmlns="http://www.w3.org/2000/svg"
   xmlns:sodipodi="http://sodipodi.sourceforge.net/DTD/sodipodi-0.dtd"
   xmlns:inkscape="http://www.inkscape.org/namespaces/inkscape"
   inkscape:version="1.0beta2 (2b71d25, 2019-12-03)"
   sodipodi:docname="prego.svg"
   viewBox="0 0 4032 3196"
   height="3196"
   width="4032"
   id="svg78"
   version="1.1">
  <metadata
     id="metadata84">
    <rdf:RDF>
      <cc:Work
         rdf:about="">
        <dc:format>image/svg+xml</dc:format>
        <dc:type
           rdf:resource="http://purl.org/dc/dcmitype/StillImage" />
        <dc:title></dc:title>
      </cc:Work>
    </rdf:RDF>
  </metadata>
  <defs
     id="defs82">
    <inkscape:perspective
       id="perspective1273"
       inkscape:persp3d-origin="2016 : 1065.3333 : 1"
       inkscape:vp_z="4032 : 1598 : 1"
       inkscape:vp_y="0 : 1000 : 0"
       inkscape:vp_x="0 : 1598 : 1"
       sodipodi:type="inkscape:persp3d" />
  </defs>
  <sodipodi:namedview
     inkscape:current-layer="layer1"
     inkscape:window-maximized="0"
     inkscape:window-y="23"
     inkscape:window-x="0"
     inkscape:cy="1374.4772"
     inkscape:cx="1827.9779"
     inkscape:zoom="0.16118969"
     showgrid="false"
     id="namedview80"
     inkscape:window-height="755"
     inkscape:window-width="1280"
     inkscape:pageshadow="2"
     inkscape:pageopacity="0"
     guidetolerance="10"
     gridtolerance="10"
     objecttolerance="10"
     borderopacity="1"
     inkscape:document-rotation="0"
     bordercolor="#666666"
     pagecolor="#ffffff" />
  <g
     style="display:inline"
     id="g86"
     inkscape:label="Image"
     inkscape:groupmode="layer">
    <rect
       y="0"
       x="-6.4409003"
       height="3183.0127"
       width="4083.3284"
       id="rect1289"
       style="fill:#1a1a1a;fill-opacity:1;stroke:#ffffff;stroke-width:30;stroke-linejoin:round;stroke-miterlimit:4;stroke-dasharray:none;stroke-opacity:1;paint-order:markers fill stroke" />
  </g>
  <g
     inkscape:label="Image 2"
     id="layer2"
     inkscape:groupmode="layer" />
  <g
     inkscape:label="Image 1"
     id="layer1"
     inkscape:groupmode="layer">
    <path
       sodipodi:nodetypes="szzsss"
       inkscape:connector-curvature="0"
       id="path90"
       d="M 2588.3511,175.28337 C 3041.5502,283.94166 3644.9478,1184.2075 3342.0694,1834.6326 3039.191,2485.0577 1950.7045,3231.0035 1367.2102,3032.4021 783.71601,2833.8008 402.59426,1976.2309 525.8501,1507.4369 620.77189,1146.4093 973.40383,803.49407 1282.0494,576.36772 1653.1296,303.29702 2142.165,68.306533 2588.3511,175.28337 Z"
       style="display:inline;fill:#f9f9f9;stroke:#000000;stroke-width:1px;stroke-linecap:butt;stroke-linejoin:miter;stroke-opacity:1" />
    <path
       style="display:inline;fill:#1a1a1a;stroke:#000000;stroke-width:0.91554899999999995px;stroke-linecap:butt;stroke-linejoin:miter;stroke-opacity:1"
       d="m 2149.8717,1659.8187 c 120.3374,-32.656 416.5676,-99.6449 626.2224,-268.397 303.7374,-244.4795 389.3482,-392.01122 479.6711,-329.1344 139.2846,96.9609 92.3664,524.3766 -18.9862,760.2235 -279.2221,591.3977 -1315.0766,1284.8103 -1824.9684,1110.8505 -279.6667,-95.4139 -380.548,-206.1242 -423.39215,-317.0756 -44.11721,-114.2482 24.29725,-258.5606 135.64175,-402.9962 91.8641,-119.1658 161.528,-193.3828 409.6266,-341.2529 251.982,-150.1848 454.4145,-168.3183 616.1849,-212.2179 z"
       id="path90-1"
       inkscape:connector-curvature="0"
       sodipodi:nodetypes="sssssssss" />
    <path
       style="display:inline;fill:#1a1a1a;stroke:#000000;stroke-width:0.95520499999999997px;stroke-linecap:butt;stroke-linejoin:miter;stroke-opacity:1"
       d="m 2569.2729,296.76151 c 428.8759,104.76442 612.1866,502.29811 -1.1516,981.30349 -339.7582,265.3446 -606.3056,308.6209 -856.5982,362.0416 -201.5407,43.0153 -402.7862,111.5646 -594.0742,261.3476 -142.71072,111.7459 -344.38572,343.5613 -423.86279,249.8785 -67.43419,-79.4873 -146.82197,-296.1766 -76.11924,-570.1566 89.82739,-348.0899 423.53343,-678.71645 715.61383,-897.70348 351.1643,-263.28495 813.953,-489.85434 1236.1922,-386.71111 z"
       id="path90-4"
       inkscape:connector-curvature="0"
       sodipodi:nodetypes="ssssssss" />
    <path
       sodipodi:nodetypes="ccccccccccccccccc"
       inkscape:connector-curvature="0"
       id="path1016"
       d="m 661.09059,923.55563 142.93083,-26.6697 v -134.3718 c -0.45253,-102.1064 -55.90716,-151.5532 -132.85221,-154.4203 l -404.89861,2.0157 c -134.62222,2.0452 -147.00005,81.9518 -141.27163,166.5147 V 1250.461 c -2.02807,121.9082 95.81393,157.3573 171.5075,153.8311 h 384.74136 c 69.19543,0.043 128.68521,-20.4875 122.77359,-153.8311 v -132.2165 l -142.93083,-35.0117 v 185.3697 H 247.12121 V 746.38833 l 413.96938,-4.0314 z"
       style="display:inline;fill:#800000;fill-opacity:1;stroke:#f9f9f9;stroke-width:30;stroke-linecap:butt;stroke-linejoin:round;stroke-miterlimit:4;stroke-dasharray:none;stroke-opacity:1;paint-order:markers fill stroke" />
    <path
       sodipodi:nodetypes="ccccccccccccc"
       inkscape:connector-curvature="0"
       d="m 1153.6979,1130.7234 126.9158,-246.78075 133.9667,244.43045 z m 58.7564,-397.19995 -347.8418,671.00975 h 143.3672 l 72.8593,-144.5429 406.5997,9.4004 79.9101,135.1425 h 166.8711 L 1344.0715,733.52345 Z"
       style="display:inline;fill:#800000;stroke:#f9f9f9;stroke-width:30;stroke-linecap:butt;stroke-linejoin:round;stroke-miterlimit:4;stroke-dasharray:none;stroke-opacity:1;paint-order:markers fill stroke"
       id="path1027-8" />
    <path
       sodipodi:nodetypes="ccccccccccc"
       inkscape:connector-curvature="0"
       id="path1053"
       d="m 1776.737,1404.5332 h 160.9891 v -256.4209 l 288.7846,1.6597 v -131.1148 l -290.4443,-1.6597 1.6597,-169.28753 517.8207,-1.6596 v -129.4552 l -678.8098,1.6597 z"
       style="display:inline;fill:#800000;stroke:#f9f9f9;stroke-width:30;stroke-linecap:butt;stroke-linejoin:round;stroke-miterlimit:4;stroke-dasharray:none;stroke-opacity:1" />
    <path
       sodipodi:nodetypes="ccccccccccc"
       style="display:inline;fill:#800000;stroke:#f9f9f9;stroke-width:30;stroke-linecap:butt;stroke-linejoin:round;stroke-miterlimit:4;stroke-dasharray:none;stroke-opacity:1"
       d="m 2490.3889,1404.5332 h 160.9891 v -256.4209 l 288.7846,1.6597 v -131.1148 l -290.4443,-1.6597 1.6597,-170.11733 h 517.8207 v -130.285 l -678.8098,1.6597 z"
       id="path1053-3"
       inkscape:connector-curvature="0" />
    <path
       sodipodi:nodetypes="ccccccccccccc"
       inkscape:connector-curvature="0"
       id="path1053-3-4"
       d="m 3224.8661,1404.5332 h 673.0777 v -139.6144 h -509.9713 v -131.0442 h 254.4496 l 0.9153,-142.42825 h -255.3649 v -136.9364 l 509.9713,-1.6596 v -129.4552 l -673.0777,1.6597 z"
       style="display:inline;fill:#800000;stroke:#f9f9f9;stroke-width:30;stroke-linecap:butt;stroke-linejoin:round;stroke-miterlimit:4;stroke-dasharray:none;stroke-opacity:1" />
    <path
       style="display:inline;fill:#008000;stroke:#f9f9f9;stroke-width:30;stroke-linecap:butt;stroke-linejoin:round;stroke-miterlimit:4;stroke-dasharray:none;stroke-opacity:1"
       d="m 1599.6967,2555.338 h 673.0777 v -139.6144 h -509.9713 v -135.5082 h 297.6929 v -133.2771 h -297.6929 v -141.6236 l 509.9713,1.5097 v -132.6245 l -673.0777,1.6597 z"
       id="path1053-3-4-1"
       inkscape:connector-curvature="0"
       sodipodi:nodetypes="ccccccccccccc" />
    <path
       sodipodi:nodetypes="ccccccccccccccccc"
       inkscape:connector-curvature="0"
       d="m 991.61029,2008.288 v 161.2168 h 345.98201 v -153.9711 z m -139.47959,547.05 v -682.9068 h 536.1815 c 61.0425,0.3403 115.8625,2.1779 110.4968,106.874 v 228.2394 c 4.3808,91.9638 -99.9735,91.4854 -186.5766,92.3827 L 1558.586,2555.338 H 1395.5578 L 1138.3356,2299.9273 H 991.61029 v 255.4107 z"
       style="display:inline;fill:#008000;stroke:#f9f9f9;stroke-width:30;stroke-linecap:butt;stroke-linejoin:round;stroke-miterlimit:4;stroke-dasharray:none;stroke-opacity:1;paint-order:markers fill stroke"
       id="path1132" />
    <path
       id="path1132-8"
       style="display:inline;fill:#008000;stroke:#f9f9f9;stroke-width:35.3841;stroke-linecap:butt;stroke-linejoin:round;stroke-miterlimit:4;stroke-dasharray:none;stroke-opacity:1;paint-order:markers fill stroke"
       d="m 214.09488,1873.5092 v 200.1431 H 601.79685 V 1882.5044 Z M 57.796275,2552.6459 V 1704.8495 H 658.63278 c 68.40327,0.4224 129.83368,2.7037 123.82097,132.679 v 283.3484 c 4.90905,114.1687 -112.02873,113.5748 -209.07479,114.6887 H 214.09488 v 317.0803 z"
       inkscape:connector-curvature="0"
       sodipodi:nodetypes="cccccccccccccc" />
    <path
       style="display:inline;fill:#008000;fill-opacity:1;stroke:#f9f9f9;stroke-width:29.7119;stroke-linecap:butt;stroke-linejoin:round;stroke-miterlimit:4;stroke-dasharray:none;stroke-opacity:1;paint-order:markers fill stroke"
       d="m 2958.4944,2073.8293 150.1,-23.3258 v -85.709 c -0.5074,-89.3041 -52.5019,-103.3876 -138.7967,-105.8952 l -454.0984,1.763 c -150.9804,1.7887 -164.8622,71.6766 -158.4378,145.6368 v 414.4265 c -2.2745,106.6231 107.4564,137.6276 192.3476,134.5435 h 431.4919 c 77.6035,0.037 126.4746,-31.1751 127.4934,-134.5435 l 0,-249.7065 h -386.5071 l 0,106.1282 h 236.4071 v 159.4452 h -464.2715 v -456.7383 l 464.2715,-3.5258 z"
       id="path1016-0"
       inkscape:connector-curvature="0"
       sodipodi:nodetypes="ccccccccccccccccccc" />
    <path
       sodipodi:nodetypes="cccccccccccccc"
       inkscape:connector-curvature="0"
       id="path1016-0-9"
       d="m 3777.7442,2434.6565 h -464.2715 v -463.7398 l 464.2715,-3.5799 z m 150.1,-479.0303 c -0.5074,-90.6732 -52.5019,-104.9725 -138.7967,-107.5186 l -454.0984,1.79 c -150.9804,1.8162 -164.8622,72.7753 -158.4378,147.8694 v 420.7794 c -2.2745,108.2577 107.4564,139.7374 192.3476,136.6061 h 431.4919 c 77.6035,0.038 126.4746,-31.6529 127.4934,-136.6061 z"
       style="display:inline;fill:#008000;fill-opacity:1;stroke:#f9f9f9;stroke-width:29.9388;stroke-linecap:butt;stroke-linejoin:round;stroke-miterlimit:4;stroke-dasharray:none;stroke-opacity:1;paint-order:markers fill stroke" />
    <path
       inkscape:connector-curvature="0"
       id="path1027"
       d="m 1153.6979,1123.2735 126.9158,-246.7808 133.9667,244.4305 z"
       style="display:inline;fill:none;stroke:#f9f9f9;stroke-width:30;stroke-linecap:butt;stroke-linejoin:miter;stroke-miterlimit:4;stroke-dasharray:none;stroke-opacity:1;paint-order:markers fill stroke" />
  </g>
</svg>
